<svg width="33" height="35" viewBox="0 0 33 35" fill="none" xmlns="http://www.w3.org/2000/svg">
<path d="M30.4891 11.2228H28.7784C28.7654 11.2074 28.7531 11.1915 28.7391 11.1767L19.4131 1.28536C18.9929 0.839654 18.3115 0.839654 17.8913 1.28536C17.471 1.73106 17.471 2.45369 17.8913 2.89939L25.739 11.2228H7.2609L15.1087 2.89939C15.5289 2.45369 15.5289 1.73106 15.1087 1.28536C14.6885 0.839654 14.0071 0.839654 13.5869 1.28536L4.2608 11.1767C4.24682 11.1915 4.23457 11.2075 4.22149 11.2228H2.5109C1.12638 11.2228 0 12.4175 0 13.8858V15.4076C0 16.8063 1.0219 17.9565 2.31541 18.0627L4.37791 31.1879C4.6385 32.8457 5.97764 34.0489 7.56228 34.0489H25.7529C27.3491 34.0489 28.7229 32.7851 28.9487 31.1092L30.7062 18.0608C31.9895 17.9436 32.9999 16.7984 32.9999 15.4076V13.8858C33 12.4175 31.8736 11.2228 30.4891 11.2228ZM30.8478 15.4076C30.8478 15.6174 30.6869 15.788 30.4892 15.788C30.1588 15.788 20.1997 15.788 19.7283 15.788C19.1341 15.788 18.6522 16.299 18.6522 16.9293C18.6522 17.5596 19.134 18.0707 19.7283 18.0707H28.5311L26.8183 30.7865C26.743 31.3451 26.2851 31.7663 25.7529 31.7663H7.56228C7.03409 31.7663 6.58769 31.3653 6.50081 30.8127L4.49857 18.0707H13.2717C13.866 18.0707 14.3478 17.5597 14.3478 16.9293C14.3478 16.2991 13.8661 15.788 13.2717 15.788C12.7996 15.788 2.83987 15.788 2.5109 15.788C2.31309 15.788 2.15222 15.6173 2.15222 15.4076V13.8858C2.15222 13.676 2.31316 13.5054 2.5109 13.5054H30.4892C30.687 13.5054 30.8478 13.6761 30.8478 13.8858V15.4076Z" fill="#E8C467"/>
<path d="M10.0435 20.3532C9.44926 20.3532 8.96741 20.8642 8.96741 21.4946V28.3424C8.96741 28.9727 9.44919 29.4837 10.0435 29.4837C10.6378 29.4837 11.1196 28.9727 11.1196 28.3424V21.4945C11.1196 20.8642 10.6378 20.3532 10.0435 20.3532Z" fill="#E8C467"/>
<path d="M16.5 20.3532C15.9057 20.3532 15.4239 20.8642 15.4239 21.4946V28.3424C15.4239 28.9727 15.9057 29.4837 16.5 29.4837C17.0943 29.4837 17.5761 28.9727 17.5761 28.3424V21.4945C17.5761 20.8642 17.0943 20.3532 16.5 20.3532Z" fill="#E8C467"/>
<path d="M22.9565 20.3532C22.3622 20.3532 21.8804 20.8642 21.8804 21.4946V28.3424C21.8804 28.9727 22.3622 29.4837 22.9565 29.4837C23.5508 29.4837 24.0326 28.9727 24.0326 28.3424V21.4945C24.0326 20.8642 23.5508 20.3532 22.9565 20.3532Z" fill="#E8C467"/>
</svg>
