<svg width="36" height="38" viewBox="0 0 36 38" fill="none" xmlns="http://www.w3.org/2000/svg">
<path d="M35.246 1.53116C34.5114 0.620819 32.9971 0.596543 31.7997 1.4814C18.4742 11.3167 18.7669 10.7372 11.2919 19.0383H6.53736C6.95945 18.0062 7.94384 17.2998 9.07461 17.2176C9.41638 17.2176 9.69345 16.9459 9.69345 16.6107C9.69345 16.2755 9.41638 16.0038 9.07461 16.0038C7.36846 16.0038 5.9804 14.0981 5.9804 11.7555C5.9804 11.4204 5.70334 11.1486 5.36156 11.1486C5.01978 11.1486 4.74272 11.4204 4.74272 11.7555C4.74272 14.0981 3.35466 16.0038 1.64851 16.0038C1.30674 16.0038 1.02967 16.2755 1.02967 16.6107C1.02967 16.9459 1.30674 17.2176 1.64851 17.2176C2.98212 17.2176 4.11769 18.384 4.55212 20.0093L1.39603 23.0195C1.15546 23.2466 1.01907 23.5597 1.01802 23.8871C1.01697 24.2146 1.15135 24.5285 1.39046 24.757L7.84187 30.9104C4.92888 31.5374 2.29185 33.0498 0.306247 35.2321C-0.0137546 35.5907 -0.0901272 36.0998 0.110993 36.5337C0.312112 36.9675 0.753505 37.2458 1.23946 37.2451H3.93204C4.21347 37.2442 4.48606 37.1487 4.70435 36.9745C8.32883 34.1005 13.5081 34.1005 17.1325 36.9745C17.3511 37.1486 17.6239 37.2441 17.9055 37.2451H20.598C21.084 37.2458 21.5254 36.9675 21.7265 36.5337C21.9276 36.0998 21.8513 35.5907 21.5313 35.2321C19.5455 33.0497 16.9082 31.5373 13.995 30.9104L20.4415 24.7649C20.6825 24.5381 20.8192 24.2249 20.8203 23.8973C20.8213 23.5697 20.6866 23.2557 20.447 23.0274L19.124 21.7657C24.0326 17.7183 25.1267 16.1822 34.8939 4.88365C35.7911 3.98206 35.937 2.59319 35.246 1.53116ZM32.5441 2.45122C32.8616 2.20233 33.252 2.05981 33.6581 2.0446C34.7293 2.0446 34.548 3.21044 33.7045 3.89259C20.2428 14.7712 21.4341 14.0927 13.2165 18.7348C19.6258 11.6159 20.4774 11.3574 32.5441 2.45122ZM18.9507 23.2865C15.3329 23.2865 15.789 23.3242 15.7216 23.1991L14.2797 20.2521H15.7649L18.9507 23.2865ZM10.9175 32.1472L9.06594 30.3872C9.14206 30.3969 9.21818 30.4139 9.29429 30.4218C10.4483 30.5578 11.6155 30.5466 12.7666 30.3884L10.9175 32.1472ZM6.08684 24.5003C6.18709 24.7467 5.51689 23.3618 8.29301 29.0375C8.00401 28.9768 7.71687 28.9082 7.43158 28.8293L2.8862 24.5003H6.08684ZM12.0723 29.2426C11.3049 29.3124 10.5326 29.3124 9.76523 29.2426L7.44643 24.5003H14.3917L12.0723 29.2426ZM14.3985 28.8311C14.1138 28.91 13.8279 28.9816 13.5445 29.0387C15.0718 25.9162 15.7346 24.5647 15.7599 24.5003H18.9426L14.3985 28.8311ZM16.6053 19.3672C16.2018 19.0031 15.8627 19.0383 15.1597 19.0383C17.7192 17.592 16.6709 18.1886 17.8498 17.4895C17.4228 18.1049 17.01 18.7348 16.6053 19.3672ZM10.199 20.2521L9.78813 20.7078C9.58804 20.9306 9.58159 21.2626 9.7729 21.4926C9.9642 21.7226 10.2971 21.7832 10.5598 21.6358L12.9275 20.3006L14.3917 23.2865H7.44643L8.93165 20.2521H10.199ZM7.55906 20.2521C5.67779 24.0961 6.17905 23.0626 6.08746 23.2865H2.89362L4.75014 21.5132C4.76347 21.8464 5.04968 22.1059 5.38941 22.0928C5.72913 22.0797 5.99373 21.799 5.9804 21.4659C5.9802 21.0579 6.02397 20.651 6.11098 20.2521H7.55906ZM3.6319 16.6107C4.38719 16.0962 4.98518 15.3895 5.36156 14.5667C5.73879 15.3899 6.33788 16.0966 7.09431 16.6107C6.33788 17.1248 5.73879 17.8315 5.36156 18.6547C4.98518 17.8319 4.38719 17.1252 3.6319 16.6107ZM20.598 36.0313H17.911C13.8349 32.797 8.00812 32.797 3.93204 36.0313L1.22956 36.0404C3.23485 33.8393 5.96101 32.394 8.93722 31.9542L10.0598 33.0242C10.543 33.4751 11.3027 33.473 11.7833 33.0193L12.8972 31.9542C15.8701 32.3918 18.5939 33.8339 20.598 36.0313ZM18.2335 20.9154L17.5162 20.2308C18.5014 18.6669 19.5658 17.1442 20.6927 15.6991C23.4503 13.8378 24.6682 12.7678 30.6028 7.97093C25.2035 14.2147 23.2807 16.7527 18.2335 20.9154Z" fill="#4799A5"/>
<path d="M23.9268 25.714C23.585 25.714 23.308 25.9857 23.308 26.3209V27.5347C23.308 27.8698 23.585 28.1415 23.9268 28.1415C24.2686 28.1415 24.5456 27.8698 24.5456 27.5347V26.3209C24.5456 25.9857 24.2686 25.714 23.9268 25.714Z" fill="#4799A5"/>
<path d="M23.308 31.176C23.308 31.5112 23.585 31.7829 23.9268 31.7829C24.2686 31.7829 24.5456 31.5112 24.5456 31.176V29.9622C24.5456 29.6271 24.2686 29.3553 23.9268 29.3553C23.585 29.3553 23.308 29.6271 23.308 29.9622V31.176Z" fill="#4799A5"/>
<path d="M25.1645 29.3553H26.4022C26.7439 29.3553 27.021 29.0836 27.021 28.7484C27.021 28.4133 26.7439 28.1415 26.4022 28.1415H25.1645C24.8227 28.1415 24.5456 28.4133 24.5456 28.7484C24.5456 29.0836 24.8227 29.3553 25.1645 29.3553Z" fill="#4799A5"/>
<path d="M22.6892 28.1415H21.4515C21.1097 28.1415 20.8326 28.4133 20.8326 28.7484C20.8326 29.0836 21.1097 29.3553 21.4515 29.3553H22.6892C23.0309 29.3553 23.308 29.0836 23.308 28.7484C23.308 28.4133 23.0309 28.1415 22.6892 28.1415Z" fill="#4799A5"/>
<path d="M12.4782 10.2381C12.6423 10.2381 12.7997 10.1741 12.9157 10.0603L13.844 9.14998C14.0785 8.91184 14.0752 8.53332 13.8365 8.29922C13.5978 8.06512 13.2118 8.06183 12.969 8.29182L12.0407 9.20217C11.8638 9.37574 11.8109 9.63673 11.9066 9.86348C12.0024 10.0902 12.228 10.2381 12.4782 10.2381Z" fill="#4799A5"/>
<path d="M9.25593 12.7914C9.49759 13.0283 9.88931 13.0283 10.131 12.7914L11.0592 11.881C11.2938 11.6429 11.2904 11.2644 11.0517 11.0303C10.813 10.7962 10.427 10.7929 10.1842 11.0229L9.25593 11.9332C9.01434 12.1702 9.01434 12.5544 9.25593 12.7914Z" fill="#4799A5"/>
<path d="M12.0407 11.881C13.0352 12.8557 13.0779 12.9692 13.4065 12.9692C13.6568 12.9691 13.8824 12.8213 13.9781 12.5945C14.0739 12.3678 14.021 12.1068 13.844 11.9332L12.9158 11.0229C12.6729 10.7929 12.287 10.7962 12.0483 11.0303C11.8096 11.2644 11.8062 11.6429 12.0407 11.881Z" fill="#4799A5"/>
<path d="M10.1842 10.0603C10.427 10.2903 10.813 10.287 11.0517 10.0529C11.2904 9.81882 11.2937 9.4403 11.0592 9.20216L10.1309 8.29182C9.88812 8.06183 9.50215 8.06512 9.26344 8.29922C9.02473 8.53332 9.02138 8.91184 9.2559 9.14997L10.1842 10.0603Z" fill="#4799A5"/>
</svg>
